<svg width="290" height="131" viewBox="0 0 290 131" fill="none" xmlns="http://www.w3.org/2000/svg">
<path d="M262 0H252L251 2.5L253 3.5C254 4.33333 256.3 6.2 257.5 7C259 8 259 8.5 259.5 9C259.9 9.4 261.333 10.1667 262 10.5C263.167 11.1667 265.6 12.5 266 12.5C266.4 12.5 268.833 14.5 270 15.5L272 17L274.5 20V22.5C274 29.8333 273 44.6 273 45C273 45.5 270 57 270 58C270 59 269.5 66 269 67C268.5 68 263.5 76.5 263 77C262.6 77.4 259.833 81.1667 258.5 83L242 87.5L207.5 94.5L187 95.5L155 74.5L155.5 71V60.5L155 54.5L153 51L144.5 43L130 33H127.5C125.5 34 121.4 36.1 121 36.5C120.5 37 116 37.5 115.5 37.5C115.1 37.5 114.333 38.8333 114 39.5V41H115.5H118.5L137 57C136.5 59.6667 135.5 65.1 135.5 65.5C135.5 65.9 134.833 70.3333 134.5 72.5L130 84C128.167 88 124.4 96.1 124 96.5C123.6 96.9 115.833 104.333 112 108L89.5 110.5L74.5 111.5L61 114L38 114.5L18 99L13.5 97L13 102H8.5L8 104H6L4.5 105.5H0L0.5 106.5L13.5 117.5L23.5 124L35.5 130.5H54.5H62L80.5 128.5L100 125.5L114 124L123 121.5L140 107L147 91.5L149 88.5L173 103.5L185.5 110.5H196L218 108.5C226.667 106.667 244.1 103 244.5 103C244.9 103 256.333 99.3333 262 97.5L277 84L284 68L287 58L288.5 52L289 45.5L290 44.5V34.5V21.5L289.5 14L288 9L286.5 7L284.5 5L280.5 2.5L277.5 5C277 4.5 276 3.4 276 3C276 2.6 275.333 2.16667 275 2L273 1.5L269.5 5L268.5 4L268 0H265.5L263 3L262 4V0Z" fill="#D2D1C8"/>
</svg>
