<svg width="290" height="131" viewBox="0 0 290 131" fill="none" xmlns="http://www.w3.org/2000/svg">
<path d="M28 0H38L39 2.5L37 3.5C36 4.33333 33.7 6.2 32.5 7C31 8 31 8.5 30.5 9C30.1 9.4 28.6667 10.1667 28 10.5C26.8333 11.1667 24.4 12.5 24 12.5C23.6 12.5 21.1667 14.5 20 15.5L18 17L15.5 20V22.5C16 29.8333 17 44.6 17 45C17 45.5 20 57 20 58C20 59 20.5 66 21 67C21.5 68 26.5 76.5 27 77C27.4 77.4 30.1667 81.1667 31.5 83L48 87.5L82.5 94.5L103 95.5L135 74.5L134.5 71V60.5L135 54.5L137 51L145.5 43L160 33H162.5C164.5 34 168.6 36.1 169 36.5C169.5 37 174 37.5 174.5 37.5C174.9 37.5 175.667 38.8333 176 39.5V41H174.5H171.5L153 57C153.5 59.6667 154.5 65.1 154.5 65.5C154.5 65.9 155.167 70.3333 155.5 72.5L160 84C161.833 88 165.6 96.1 166 96.5C166.4 96.9 174.167 104.333 178 108L200.5 110.5L215.5 111.5L229 114L252 114.5L272 99L276.5 97L277 102H281.5L282 104H284L285.5 105.5H290L289.5 106.5L276.5 117.5L266.5 124L254.5 130.5H235.5H228L209.5 128.5L190 125.5L176 124L167 121.5L150 107L143 91.5L141 88.5L117 103.5L104.5 110.5H94L72 108.5C63.3333 106.667 45.9 103 45.5 103C45.1 103 33.6667 99.3333 28 97.5L13 84L6 68L3 58L1.5 52L1 45.5L0 44.5V34.5V21.5L0.5 14L2 9L3.5 7L5.5 5L9.5 2.5L12.5 5C13 4.5 14 3.4 14 3C14 2.6 14.6667 2.16667 15 2L17 1.5L20.5 5L21.5 4L22 0H24.5L27 3L28 4V0Z" fill="#D2D1C8"/>
</svg>
